# xmcd
#
# Track frame offsets: 
#        150
#        12670
#        26516
#        42992
#        62462
#        79840
#        91548
#        110155
#        124965
#        142536
#        154970
#
# Disc length: 2369 seconds
#
# Revision: 0
# Processed by: cddbd v1.5.1PL0 Copyright (c) Steve Scherf et al.
# Submitted via: ExactAudioCopy v0.90b4
#
DISCID=86093f0b
DTITLE=Clay McClinton - Out of the Blue
DYEAR=2004
DGENRE=Blues
TTITLE0=Heartache
TTITLE1=Left my baby blue
TTITLE2=Blues in the morning
TTITLE3=Lonesome time
TTITLE4=Jeremiah
TTITLE5=Starting to itch
TTITLE6=Somethings got a hold on me
TTITLE7=Far too long
TTITLE8=Texas Memory
TTITLE9=Rambler
TTITLE10=When it rains
EXTD=
EXTT0=
EXTT1=
EXTT2=
EXTT3=
EXTT4=
EXTT5=
EXTT6=
EXTT7=
EXTT8=
EXTT9=
EXTT10=
PLAYORDER=
